<?xml version="1.0" encoding="utf-8"?>
<!-- Generator: Adobe Illustrator 29.0.0, SVG Export Plug-In . SVG Version: 9.03 Build 54978)  -->
<svg version="1.1" baseProfile="tiny" id="图层_1"
	 xmlns="http://www.w3.org/2000/svg" xmlns:xlink="http://www.w3.org/1999/xlink" x="0px" y="0px" viewBox="0 0 720 1280"
	 overflow="visible" xml:space="preserve">
<g>
	<g>
		<path d="M154.8,617.2c-15.8,42.3-48.7,55.3-60.5,58.6c11.7,3.3,44.9,16,60.8,58.4c4.3-10.1,21-43.7,61.4-58.5
			C175.9,661.1,159.1,627.4,154.8,617.2z M167.4,688c-1,24.8-11.3,33.9-11.8,34.2l-0.9,0.7l-0.8-0.9c-10.9-12.8-11.8-29.4-11.8-34.1
			c-18.6,0.3-33.8-10.9-34.4-11.3l-1.2-0.9l1.2-0.9c0.6-0.5,15.8-11.6,34.4-11.4c0-4.7,0.9-21.3,11.8-34.1l0.8-0.9l0.9,0.7
			c0.4,0.4,10.8,9.4,11.8,34.2c4.5,0.1,21.5,1.2,34.6,11.3l1.2,0.9l-1.2,0.9C188.9,686.8,171.9,687.9,167.4,688z"/>
	</g>
	<g>
		<path d="M166.3,665.8l-1.1,0l0-1.1c-0.6-20.4-7.7-30-10.2-32.8c-11.1,13.9-10.4,32.5-10.4,32.7l0.1,1.3l-1.3-0.1
			c-15.2-0.6-28.6,7.2-32.8,9.9c4.2,2.7,17.6,10.5,32.8,9.9l1.3-0.1l-0.1,1.3c0,0.2-0.7,18.8,10.4,32.7c2.5-2.7,9.6-12.4,10.2-32.8
			l0-1.1l1.1,0c0.2,0,18.8,0.2,33-9.9C185.1,665.7,166.5,665.8,166.3,665.8z M154.9,683.4c-4.2,0-7.7-3.4-7.7-7.7
			c0-4.2,3.4-7.7,7.7-7.7c4.2,0,7.7,3.4,7.7,7.7C162.5,680,159.1,683.4,154.9,683.4z"/>
	</g>
	<g>
		<path d="M155.1,418.3c-28.9,0-52.3,23.5-52.3,52.3c0,28.9,23.5,52.3,52.3,52.3c28.9,0,52.3-23.5,52.3-52.3
			C207.4,441.8,183.9,418.3,155.1,418.3z M193.7,485.9c-5.3,3.7-12.7,4.7-19.7,2.8c0.9,4.3,2.2,14.6-3.1,21.7
			c-3.3,4.5-8.7,6.9-15.9,7.1l-1.2,0v-0.1c-6.6-0.4-11.6-2.7-14.7-7c-5.2-7.1-3.9-17.4-3.1-21.7c-7,2-14.3,1-19.7-2.8
			c-4.9-3.4-7.6-8.9-7.6-15.3c0-6.6,2.4-11.8,6.7-15.1c4.9-3.7,12.1-4.6,20.4-2.6c-1-4.4-2.7-15.1,2.7-22.3
			c3.3-4.5,8.8-6.8,16.3-6.8c0,0,0.1,0,0.1,0l1.2,0c6.9,0.2,12,2.5,15.2,6.8c5.3,7.2,3.7,17.9,2.7,22.3c8.3-2,15.5-1.1,20.4,2.6
			c4.4,3.3,6.7,8.5,6.7,15.1C201.3,477.1,198.6,482.5,193.7,485.9z"/>
	</g>
	<g>
		<path d="M193.2,457.4c-4.7-3.5-11.9-4.1-20.3-1.8l-2,0.6l0.6-2c0-0.1,4.2-14.1-1.8-22.2c-2.9-3.9-7.7-5.9-14.4-5.9
			c0,0-0.1,0-0.1,0l-1.2,0v0c-6.1,0.2-10.6,2.2-13.4,5.8c-6,8.1-1.9,22.1-1.8,22.2l0.6,2l-2-0.6c-8.4-2.4-15.6-1.8-20.3,1.8
			c-3.8,2.9-5.8,7.4-5.8,13.3c0,7.2,3.6,11.3,6.6,13.4c5.2,3.7,12.7,4.4,19.5,1.9l2.1-0.8l-0.6,2.2c0,0.1-3.7,13.7,2.2,21.8
			c2.9,3.9,7.6,6,14.1,6.1l0.2,0c6.3-0.2,11-2.3,13.8-6.1c6-8.1,2.3-21.6,2.2-21.8l-0.6-2.2l2.1,0.8c6.8,2.5,14.3,1.8,19.5-1.9
			c3-2.1,6.6-6.2,6.6-13.4C199,464.8,197,460.2,193.2,457.4z M155.1,479.3c-4.8,0-8.7-3.9-8.7-8.7s3.9-8.7,8.7-8.7
			c4.8,0,8.7,3.9,8.7,8.7S159.9,479.3,155.1,479.3z"/>
	</g>
	<g>
		<path d="M155.1,874.6c-3.5,0-6.3,2.8-6.3,6.3c0,3.5,2.8,6.3,6.3,6.3c3.5,0,6.3-2.8,6.3-6.3C161.4,877.4,158.6,874.6,155.1,874.6z"
			/>
	</g>
	<g>
		<path d="M306.8,780c-16.1-13-37.7-12.2-37.9-12.2l-1.3,0.1l0.1-1.3c0.7-17.9-8.6-33.5-11.6-38.1c-3,4.6-12.3,20.2-11.6,38.1
			l0.1,1.3l-1.3-0.1c-0.2,0-21.9-0.8-37.9,12.2c3,2.7,14.2,11.2,38,11.9l1.1,0l0,1.1c0,0.2-0.2,21.9,11.6,38.3
			c11.8-16.4,11.6-38.1,11.6-38.3l0-1.1l1.1,0C292.7,791.2,303.9,782.7,306.8,780z M256.1,788.6c-4.8,0-8.7-3.9-8.7-8.7
			c0-4.8,3.9-8.7,8.7-8.7s8.7,3.9,8.7,8.7C264.7,784.7,260.8,788.6,256.1,788.6z"/>
	</g>
	<g>
		<path d="M256.1,773.6c-3.5,0-6.3,2.8-6.3,6.3s2.8,6.3,6.3,6.3s6.3-2.8,6.3-6.3S259.6,773.6,256.1,773.6z"/>
	</g>
	<g>
		<path d="M155.1,828.6c-28.9,0-52.3,23.5-52.3,52.3s23.5,52.3,52.3,52.3c28.9,0,52.3-23.5,52.3-52.3S183.9,828.6,155.1,828.6z
			 M193.7,896.2C188.4,900,181,901,174,899c0.9,4.3,2.2,14.6-3.1,21.7c-3.3,4.5-8.7,6.9-15.9,7.1l-1.2,0v-0.1
			c-6.6-0.4-11.6-2.7-14.7-7c-5.2-7.1-3.9-17.4-3.1-21.7c-7,2-14.3,1-19.7-2.8c-4.9-3.4-7.6-8.9-7.6-15.3c0-6.6,2.4-11.8,6.7-15.1
			c4.9-3.7,12.1-4.6,20.4-2.6c-1-4.4-2.7-15.1,2.7-22.3c3.3-4.5,8.8-6.8,16.3-6.8c0,0,0.1,0,0.1,0l1.2,0c6.9,0.2,12,2.5,15.2,6.8
			c5.3,7.2,3.7,17.9,2.7,22.3c8.3-2,15.5-1.1,20.4,2.6c4.4,3.3,6.7,8.5,6.7,15.1C201.3,887.3,198.6,892.8,193.7,896.2z"/>
	</g>
	<g>
		<path d="M155.1,464.3c-3.5,0-6.3,2.8-6.3,6.3s2.8,6.3,6.3,6.3c3.5,0,6.3-2.8,6.3-6.3S158.6,464.3,155.1,464.3z"/>
	</g>
	<g>
		<path d="M193.2,867.7c-4.7-3.5-11.9-4.1-20.3-1.8l-2,0.6l0.6-2c0-0.1,4.2-14.1-1.8-22.2c-2.9-3.9-7.7-5.9-14.4-5.9
			c0,0-0.1,0-0.1,0l-1.2,0v0c-6.1,0.2-10.6,2.2-13.4,5.8c-6,8.1-1.9,22.1-1.8,22.2l0.6,2l-2-0.6c-8.4-2.4-15.6-1.8-20.3,1.8
			c-3.8,2.9-5.8,7.4-5.8,13.3c0,7.2,3.6,11.3,6.6,13.4c5.2,3.7,12.7,4.4,19.5,1.9l2.1-0.8l-0.6,2.2c0,0.1-3.7,13.7,2.2,21.8
			c2.9,3.9,7.6,6,14.1,6.1l0.3,0c6.3-0.2,10.9-2.3,13.7-6.1c6-8.1,2.3-21.6,2.2-21.8l-0.6-2.2l2.1,0.8c6.8,2.5,14.3,1.8,19.5-1.9
			c3-2.1,6.6-6.2,6.6-13.4C199,875.1,197,870.5,193.2,867.7z M155.1,889.6c-4.8,0-8.7-3.9-8.7-8.7c0-4.8,3.9-8.6,8.7-8.6
			c4.8,0,8.7,3.9,8.7,8.6C163.7,885.7,159.9,889.6,155.1,889.6z"/>
	</g>
	<g>
		<path d="M564.9,464.8c-3.5,0-6.3,2.8-6.3,6.3s2.8,6.3,6.3,6.3c3.5,0,6.3-2.8,6.3-6.3S568.4,464.8,564.9,464.8z"/>
	</g>
	<g>
		<path d="M514.7,572.2c-16.1-13-37.7-12.2-38-12.2l-1.3,0.1l0.1-1.3c0.7-17.9-8.6-33.5-11.6-38.1c-3,4.6-12.3,20.2-11.6,38.1
			l0.1,1.3l-1.3-0.1c-0.2,0-21.9-0.8-37.9,12.2c3,2.7,14.2,11.2,38,11.9l1.1,0l0,1.1c0,0.2-0.2,21.9,11.6,38.3
			c11.8-16.4,11.6-38.1,11.6-38.3l0-1.1l1.1,0C500.6,583.4,511.7,574.9,514.7,572.2z M463.9,580.7c-4.8,0-8.7-3.9-8.7-8.7
			c0-4.8,3.9-8.7,8.7-8.7s8.7,3.9,8.7,8.7C472.6,576.8,468.7,580.7,463.9,580.7z"/>
	</g>
	<g>
		<path d="M564.9,418.8c-28.8,0-52.3,23.5-52.3,52.3c0,28.9,23.5,52.3,52.3,52.3c28.9,0,52.3-23.5,52.3-52.3
			C617.2,442.2,593.8,418.8,564.9,418.8z M603.5,486.4c-5.3,3.7-12.7,4.7-19.7,2.8c0.9,4.3,2.2,14.6-3.1,21.7
			c-3.3,4.5-8.7,6.9-15.9,7.1l-1.2,0v-0.1c-6.6-0.4-11.6-2.7-14.7-7c-5.2-7.1-3.9-17.4-3.1-21.7c-7,2-14.3,0.9-19.7-2.8
			c-4.9-3.4-7.6-8.9-7.6-15.3c0-6.6,2.4-11.8,6.7-15.1c4.9-3.7,12.1-4.6,20.4-2.6c-1-4.4-2.7-15.1,2.7-22.3
			c3.3-4.5,8.8-6.8,16.3-6.8c0,0,0.1,0,0.1,0l1.2,0c6.9,0.2,12,2.5,15.2,6.8c5.3,7.2,3.7,17.9,2.7,22.3c8.3-2,15.5-1.1,20.4,2.6
			c4.4,3.3,6.7,8.5,6.7,15.1C611.2,477.5,608.5,483,603.5,486.4z"/>
	</g>
	<g>
		<path d="M463.9,565.7c-3.5,0-6.3,2.8-6.3,6.3c0,3.5,2.8,6.3,6.3,6.3c3.5,0,6.3-2.8,6.3-6.3C470.3,568.6,467.4,565.7,463.9,565.7z"
			/>
	</g>
	<g>
		<path d="M603,457.8c-4.7-3.5-11.9-4.1-20.3-1.8l-2,0.6l0.6-2c0-0.1,4.2-14.1-1.8-22.2c-2.9-3.9-7.7-5.9-14.4-5.9c0,0-0.1,0-0.1,0
			l-1.1,0c-6.2,0.2-10.7,2.1-13.5,5.8c-6,8.1-1.9,22.1-1.8,22.2l0.6,2l-2-0.6c-8.4-2.4-15.6-1.8-20.3,1.8c-3.8,2.9-5.8,7.4-5.8,13.3
			c0,7.2,3.6,11.3,6.6,13.4c5.2,3.7,12.7,4.4,19.5,1.9l2.1-0.8l-0.6,2.2c0,0.1-3.7,13.7,2.2,21.8c2.9,3.9,7.6,6,14.1,6.1l0.2,0
			c6.3-0.2,11-2.3,13.8-6.1c6-8.1,2.3-21.6,2.2-21.8l-0.6-2.2l2.1,0.8c6.8,2.5,14.3,1.8,19.5-1.9c3-2.1,6.6-6.2,6.6-13.4
			C608.8,465.3,606.8,460.7,603,457.8z M564.9,479.7c-4.8,0-8.7-3.9-8.7-8.7s3.9-8.7,8.7-8.7c4.8,0,8.7,3.9,8.7,8.7
			S569.7,479.7,564.9,479.7z"/>
	</g>
	<g>
		<path d="M360,875.6c-2.9,0-5.3,2.4-5.3,5.4c0,3,2.4,5.4,5.3,5.4c3,0,5.4-2.4,5.4-5.4C365.4,878,362.9,875.6,360,875.6z"/>
	</g>
	<g>
		<path d="M360,465.3c-2.9,0-5.3,2.4-5.3,5.4c0,3,2.4,5.4,5.3,5.4c3,0,5.4-2.4,5.4-5.4C365.4,467.7,362.9,465.3,360,465.3z"/>
	</g>
	<g>
		<path d="M359.9,410c-3.3,11.7-16,44.9-58.4,60.8c10.1,4.3,43.7,21,58.5,61.4c14.7-40.5,48.4-57.3,58.6-61.6
			C376.2,454.8,363.3,421.9,359.9,410z M372.2,483.2c-0.1,4.5-1.2,21.5-11.3,34.6l-0.9,1.2l-0.9-1.2c-10.1-13.1-11.2-30-11.3-34.6
			c-24.8-1-33.9-11.3-34.2-11.8l-0.7-0.9l0.9-0.8c12.8-10.9,29.4-11.8,34.1-11.8c-0.3-18.6,10.9-33.8,11.4-34.4l0.9-1.2l0.9,1.2
			c0.5,0.6,11.6,15.8,11.4,34.4c4.7,0,21.3,0.9,34.1,11.8l0.9,0.8l-0.7,0.9C406.1,471.9,397,482.2,372.2,483.2z"/>
	</g>
	<g>
		<path d="M256.1,565.7c-3.5,0-6.3,2.8-6.3,6.3c0,3.5,2.8,6.3,6.3,6.3c3.5,0,6.3-2.8,6.3-6.3C262.4,568.6,259.6,565.7,256.1,565.7z"
			/>
	</g>
	<g>
		<path d="M269.2,560.5l-1.1,0l0-1.1c-0.7-23.9-9.1-35.1-11.9-38c-13,16.1-12.2,37.7-12.2,38l0.1,1.3l-1.3-0.1
			c-17.9-0.7-33.5,8.6-38.1,11.6c4.6,3,20.2,12.3,38.1,11.6l1.3-0.1l-0.1,1.3c0,0.2-0.8,21.9,12.2,37.9c2.7-3,11.2-14.2,11.9-38
			l0-1.1l1.1,0c0.2,0,21.9,0.2,38.3-11.6C291.1,560.3,269.4,560.5,269.2,560.5z M256.1,580.7c-4.8,0-8.7-3.9-8.7-8.7
			c0-4.8,3.9-8.7,8.7-8.7c4.8,0,8.7,3.9,8.7,8.7C264.7,576.8,260.8,580.7,256.1,580.7z"/>
	</g>
	<g>
		<path d="M415.4,708.1c-4.1,7.7-11,20.6-20.4,22.3c-5.2,0.9-11.9,0.9-19,0.9c-1.3,0-2.6,0-3.9,0c-4.4,0-8.8,0-12.8,0l-5.3,0
			c-2.5,0-3.7,0-5.3,0l-8.9,0l2.8-8.2c1.8-5.2,3.2-9.5,4.5-13.2l0.9-2.7l7.7,16.3l12.3,0c12.5-29.9,27.3-64.9,39.7-93.7
			c3.1-7.3,7.3-9,14.2-9.1l0-5.3l-31.2-0.1l0,5.5c3.3,0.1,8.5,0.4,10.3,3.3c0.9,1.4,0.9,3,0,5c-1.4,3.1-4.8,11.3-9.2,21.8
			c-8.7,20.8-20.6,49.4-24.5,57.1l-1.1,2.1l-10.9-23.3l0.2-0.5c2.5-6.8,5.7-15.2,10.6-28l4.5-11.9c3.7-9.6,8.9-9.9,15.5-10.3
			c0.2,0,0.5,0,0.7,0l1.2-4.4l-36.6-0.1l-1.7,4.6c3.3,0.2,5.6,0.7,6.8,2.5c1.5,2.3,0.5,5.8-2.3,13l-6.9,17.9l-11.9-25.3
			c-1.2-2.5-3.9-8.9-5.9-15.1c-0.6-1.8,0-3,0.5-3.6c1-1.2,2.8-1.6,4.1-1.6v-8.6l-36.1,0v8.6c11.3,0.2,13,4.1,16,11.1
			c0.5,1.2,1.1,2.6,1.8,4l23.8,50.4l-10.9,28.4c-2.4,6.3-4.3,9.6-6.3,11.4c-1.8,1.5-6.9,1.7-13.8,1.8c-1.5,0-2.9,0-4,0.1l-2,5.6
			l104.9-0.1l13.8-29.7l-5.2,0C415.8,707.3,415.6,707.7,415.4,708.1z"/>
	</g>
	<g>
		<path d="M403.9,470.7c-13.9-11.1-32.5-10.4-32.7-10.4l-1.3,0.1l0.1-1.3c0.6-15.2-7.2-28.6-9.9-32.8c-2.7,4.2-10.6,17.6-9.9,32.8
			l0.1,1.3l-1.3-0.1c-0.2,0-18.8-0.7-32.7,10.4c2.7,2.5,12.4,9.6,32.8,10.2l1.1,0l0,1.1c0,0.2-0.2,18.8,9.9,33
			c10.1-14.2,9.9-32.8,9.9-33l0-1.1l1.1,0C391.4,480.3,401.1,473.2,403.9,470.7z M360,478.3c-4.2,0-7.7-3.4-7.7-7.7
			c0-4.2,3.4-7.7,7.7-7.7c4.2,0,7.7,3.4,7.7,7.7C367.7,474.9,364.2,478.3,360,478.3z"/>
	</g>
	<g>
		<path d="M154.9,670.4c-3,0-5.4,2.4-5.4,5.4c0,2.9,2.4,5.3,5.4,5.3c3,0,5.4-2.4,5.4-5.3C160.2,672.8,157.8,670.4,154.9,670.4z"/>
	</g>
	<g>
		<path d="M576.6,665.8l-1.1,0l0-1.1c-0.6-20.4-7.7-30-10.2-32.8c-11.1,13.9-10.4,32.5-10.4,32.7l0.1,1.3l-1.3-0.1
			c-15.2-0.6-28.6,7.2-32.8,9.9c4.2,2.7,17.6,10.6,32.8,9.9l1.3-0.1l-0.1,1.3c0,0.2-0.7,18.8,10.4,32.7c2.5-2.7,9.6-12.4,10.2-32.8
			l0-1.1l1.1,0c0.2,0,18.8,0.2,33-9.9C595.4,665.7,576.8,665.8,576.6,665.8z M565.2,683.4c-4.2,0-7.7-3.4-7.7-7.7
			c0-4.2,3.4-7.7,7.7-7.7s7.7,3.4,7.7,7.7C572.8,680,569.4,683.4,565.2,683.4z"/>
	</g>
	<g>
		<path d="M565.2,670.4c-3,0-5.4,2.4-5.4,5.4c0,2.9,2.4,5.3,5.4,5.3s5.4-2.4,5.4-5.3C570.5,672.8,568.1,670.4,565.2,670.4z"/>
	</g>
	<g>
		<path d="M463.9,773.6c-3.5,0-6.3,2.8-6.3,6.3c0,3.5,2.8,6.3,6.3,6.3c3.5,0,6.3-2.8,6.3-6.3C470.3,776.4,467.4,773.6,463.9,773.6z"
			/>
	</g>
	<g>
		<path d="M564.9,875c-3.5,0-6.3,2.8-6.3,6.3c0,3.5,2.8,6.3,6.3,6.3c3.5,0,6.3-2.8,6.3-6.3C571.2,877.9,568.4,875,564.9,875z"/>
	</g>
	<g>
		<path d="M359.9,820.3c-3.3,11.7-16,44.9-58.4,60.8c10.1,4.3,43.7,21,58.5,61.4c14.7-40.5,48.4-57.3,58.6-61.6
			C376.2,865.1,363.3,832.1,359.9,820.3z M372.2,893.5c-0.1,4.5-1.2,21.5-11.3,34.6l-0.9,1.2l-0.9-1.2c-10.1-13.1-11.2-30-11.3-34.6
			c-24.8-1-33.9-11.3-34.2-11.8l-0.7-0.9l0.9-0.8c12.8-10.9,29.4-11.8,34.1-11.8c-0.3-18.6,10.9-33.8,11.4-34.4l0.9-1.2l0.9,1.2
			c0.5,0.6,11.6,15.8,11.4,34.4c4.7,0,21.3,0.9,34.1,11.8l0.9,0.8l-0.7,0.9C406.1,882.2,397,892.5,372.2,893.5z"/>
	</g>
	<g>
		<path d="M603,868.1c-4.7-3.5-11.9-4.1-20.3-1.8l-2,0.6l0.6-2c0-0.1,4.2-14.1-1.8-22.2c-2.9-3.9-7.7-5.9-14.4-5.9c0,0-0.1,0-0.1,0
			l-1.1,0c-6.2,0.2-10.7,2.1-13.4,5.8c-6,8.1-1.9,22.1-1.8,22.2l0.6,2l-2-0.6c-8.4-2.4-15.6-1.8-20.3,1.8c-3.8,2.8-5.8,7.4-5.8,13.3
			c0,7.2,3.6,11.3,6.6,13.4c5.2,3.7,12.7,4.4,19.5,1.9l2.1-0.8l-0.6,2.2c0,0.1-3.7,13.7,2.2,21.8c2.9,3.9,7.6,6,14.1,6.1l0.1,0
			c6.4-0.2,11-2.3,13.9-6.1c6-8.1,2.3-21.6,2.2-21.8l-0.6-2.2l2.1,0.8c6.8,2.5,14.3,1.8,19.5-1.9c3-2.1,6.6-6.2,6.6-13.4
			C608.8,875.6,606.8,871,603,868.1z M564.9,890c-4.8,0-8.7-3.9-8.7-8.6c0-4.8,3.9-8.7,8.7-8.7c4.8,0,8.7,3.9,8.7,8.7
			C573.6,886.2,569.7,890,564.9,890z"/>
	</g>
	<g>
		<path d="M477.1,768.3l-1.1,0l0-1.1c-0.7-24-9.1-35.1-11.9-38c-13,16.1-12.2,37.7-12.2,38l0.1,1.3l-1.3-0.1
			c-17.9-0.7-33.5,8.6-38.1,11.6c4.6,3,20.2,12.3,38.1,11.6l1.3-0.1l-0.1,1.3c0,0.2-0.8,21.9,12.2,37.9c2.7-3,11.2-14.2,11.9-38
			l0-1.1l1.1,0c0.2,0,21.9,0.2,38.3-11.6C499,768.1,477.3,768.3,477.1,768.3z M463.9,788.6c-4.8,0-8.7-3.9-8.7-8.6
			c0-4.8,3.9-8.7,8.7-8.7c4.8,0,8.7,3.9,8.7,8.7C472.6,784.7,468.7,788.6,463.9,788.6z"/>
	</g>
	<g>
		<path d="M564.9,829.1c-28.8,0-52.3,23.5-52.3,52.3s23.5,52.3,52.3,52.3c28.9,0,52.3-23.5,52.3-52.3S593.8,829.1,564.9,829.1z
			 M603.6,896.7c-5.3,3.7-12.7,4.7-19.7,2.8c0.9,4.3,2.2,14.6-3.1,21.7c-3.3,4.5-8.7,6.9-15.9,7.1l-1.2,0v-0.1
			c-6.6-0.4-11.6-2.7-14.7-7c-5.2-7.1-3.9-17.4-3.1-21.7c-7,2-14.3,0.9-19.7-2.8c-4.9-3.4-7.6-8.9-7.6-15.3c0-6.6,2.4-11.8,6.7-15.1
			c4.9-3.7,12.1-4.6,20.4-2.6c-1-4.4-2.7-15.1,2.7-22.3c3.3-4.5,8.8-6.8,16.3-6.8c0,0,0.1,0,0.1,0l1.2,0c6.9,0.2,12,2.5,15.2,6.8
			c5.3,7.2,3.7,17.9,2.7,22.3c8.3-2,15.5-1.1,20.4,2.6c4.4,3.3,6.7,8.5,6.7,15.1C611.2,887.8,608.5,893.2,603.6,896.7z"/>
	</g>
	<g>
		<path d="M0,0v1280h720V0H0z M564.9,416.4c30.1,0,54.6,24.5,54.6,54.6c0,30.1-24.5,54.6-54.6,54.6c-30.1,0-54.6-24.5-54.6-54.6
			C510.3,441,534.8,416.4,564.9,416.4z M450,557.7c-0.4-21.5,12.5-39,13-39.7l0.9-1.2l0.9,1.2c0.6,0.7,13.4,18.2,13,39.7
			c0,0,0,0,0,0c5.2,0,24.4,0.9,39.2,13.5l0.9,0.8l-0.7,0.9c-0.4,0.5-10.8,12.4-39.5,13.5c-0.1,5-1.3,24.6-13,39.9l-0.9,1.2l-0.9-1.2
			c-11.7-15.2-12.9-34.9-13-39.9c-28.6-1.1-39-13-39.5-13.5l-0.7-0.9l0.9-0.8C425.5,558.6,444.8,557.7,450,557.7
			C449.9,557.7,449.9,557.7,450,557.7z M313.8,640c-0.7-1.5-1.3-2.9-1.8-4.1c-3-6.9-4.2-9.8-15-9.7l-1.2,0V613l40.7,0v13.4l-1.3-0.2
			c-0.8-0.1-2.7,0-3.3,0.8c-0.1,0.1-0.4,0.5-0.1,1.4c2,6.1,4.7,12.4,5.8,14.8l9.6,20.4l4.9-12.8c2.2-5.7,3.4-9.6,2.5-10.9
			c-0.7-1-2.9-1.3-6.5-1.5l-1.6-0.1l3.3-9l41.3,0.1l-2.4,8.9l-0.8,0.1c-0.5,0-1.1,0.1-1.6,0.1c-6.6,0.4-10.3,0.6-13.4,8.8l-4.5,11.9
			c-4.7,12.4-7.9,20.8-10.4,27.5l8.5,18.1c4.6-9.9,15.3-35.6,23.3-54.7c4.4-10.4,7.8-18.7,9.2-21.8c0.8-1.8,0.3-2.6,0.2-2.8
			c-1.3-2-6.3-2.1-8.8-2.2l-1.9-0.1l0-10.1l35.8,0.1l0,10h-1.2c-7.7,0-10.7,1.7-13.3,7.7c-12.5,29.1-27.4,64.4-40,94.4l-0.3,0.7
			l-15.3,0l-5.9-12.5c-1.1,3.1-2.2,6.5-3.6,10.5l-1.7,5.1l5.7,0c1.7,0,2.9,0,5.3,0l5.3,0c4,0,8.4,0,12.8,0c1.3,0,2.6,0,3.9,0
			c7,0,13.6,0.1,18.6-0.8c8.3-1.5,14.8-13.8,18.7-21.1c0.3-0.6,0.6-1.2,0.9-1.8l0.3-0.6l10.2,0l-16,34.3l-109.7,0.2l3.7-10.1l0.8,0
			c1.3-0.1,3-0.1,4.9-0.1c4.2-0.1,11.1-0.1,12.4-1.2c2.2-1.9,4.1-6.4,5.7-10.5l10.6-27.5L313.8,640z M297.8,469.7
			c53.1-18.2,60.8-63.7,60.8-64.2l0.1-0.6l2.2-1.1l0.2,1.5c0.1,0.5,8,45.9,61.1,64.1l3.3,1.1l-3.3,1.1c-0.4,0.1-44.8,15.3-61.1,64.3
			l-1.3,3.1l-1-2.9c-16.3-49-60.6-64.1-61-64.2l-3.3-1.1L297.8,469.7z M255.2,518.8l0.8-0.9l0.9,0.7c0.5,0.4,12.4,10.8,13.5,39.5
			c5,0.1,24.6,1.3,39.9,13l1.2,0.9l-1.2,0.9c-15.2,11.7-34.9,12.9-39.9,13c-1.1,28.6-13,39-13.5,39.5l-0.9,0.7l-0.8-0.9
			c-12.7-14.8-13.5-34.2-13.5-39.3c-0.3,0-0.6,0-0.9,0c-21.1,0-38.1-12.5-38.8-13l-1.2-0.9l1.2-0.9c0.7-0.6,18.2-13.4,39.7-13
			C241.7,553,242.5,533.7,255.2,518.8z M155.1,416c30.1,0,54.6,24.5,54.6,54.6c0,30.1-24.5,54.6-54.6,54.6
			c-30.1,0-54.6-24.5-54.6-54.6C100.4,440.5,125,416,155.1,416z M89.1,677.1l-1.1-2.2l1.5-0.2c0.5-0.1,45.9-8,64.1-61.1l1.1-3.3
			l1.1,3.3c0.1,0.4,15.3,44.8,64.3,61.1l3.2,1.3l-3,1c-49,16.3-64.1,60.6-64.2,61l-1.1,3.3l-1.1-3.3c-18.2-53.1-63.7-60.8-64.2-60.8
			L89.1,677.1z M155.1,935.6c-30.1,0-54.6-24.5-54.6-54.6c0-30.1,24.5-54.6,54.6-54.6c30.1,0,54.6,24.5,54.6,54.6
			C209.7,911,185.2,935.6,155.1,935.6z M257,834l-0.9,1.2l-0.9-1.2c-11.7-15.2-12.9-34.9-13-39.9c-28.6-1.1-39-13-39.5-13.5
			l-0.7-0.9l0.9-0.8c14.8-12.6,34.1-13.5,39.2-13.5c0,0,0,0,0,0c-0.4-21.5,12.5-39,13-39.7l0.9-1.2l0.9,1.2
			c0.6,0.7,13.4,18.2,13,39.7c0,0,0,0,0,0c5.1,0,24.4,0.9,39.2,13.5l0.9,0.8l-0.7,0.9c-0.4,0.5-10.8,12.4-39.5,13.5
			C269.9,799.1,268.7,818.8,257,834z M422.2,881.9c-0.4,0.1-44.8,15.3-61.1,64.3l-1.3,3.1l-1-2.9c-16.3-49-60.6-64.1-61-64.2
			l-3.3-1.1l3.3-1.1c53.1-18.2,60.8-63.7,60.8-64.2l0.1-0.6l2.2-1.1l0.3,1.6c0.1,0.5,8,45.9,61.1,64.1l3.3,1.1L422.2,881.9z
			 M464.7,833.3l-0.9,0.7l-0.8-0.9c-12.7-14.8-13.5-34.2-13.5-39.3c-0.3,0-0.6,0-0.9,0c-21.1,0-38.1-12.5-38.8-13l-1.2-0.9l1.2-0.9
			c0.7-0.6,18.2-13.4,39.7-13c0-5.1,0.9-24.4,13.5-39.3l0.8-0.9l0.9,0.7c0.5,0.4,12.4,10.9,13.5,39.5c5,0.1,24.6,1.3,39.9,13
			l1.2,0.9l-1.2,0.9c-15.2,11.7-34.9,12.9-39.9,13C477.1,822.5,465.2,832.9,464.7,833.3z M564.9,936c-30.1,0-54.6-24.5-54.6-54.6
			c0-30.1,24.5-54.6,54.6-54.6c30.1,0,54.6,24.5,54.6,54.6C619.6,911.5,595,936,564.9,936z M630.6,676.9c-49,16.3-64.1,60.6-64.2,61
			l-1.1,3.3l-1.1-3.3c-18.2-53.1-63.7-60.8-64.2-60.8l-0.6-0.1l-1.1-2.2l1.6-0.3c0.5-0.1,45.9-8,64.1-61.1l1.1-3.3l1.1,3.3
			c0.1,0.4,15.3,44.8,64.3,61.1l3.2,1.3L630.6,676.9z"/>
	</g>
	<g>
		<path d="M403.9,881c-13.9-11.1-32.5-10.4-32.7-10.4l-1.3,0.1l0.1-1.3c0.6-15.3-7.2-28.6-9.9-32.8c-2.7,4.2-10.6,17.6-9.9,32.8
			l0.1,1.3l-1.3-0.1c-0.2,0-18.8-0.7-32.7,10.4c2.7,2.5,12.4,9.6,32.8,10.2l1.1,0l0,1.1c0,0.2-0.2,18.8,9.9,33
			c10.1-14.2,9.9-32.8,9.9-33l0-1.1l1.1,0C391.5,890.6,401.1,883.5,403.9,881z M360,888.6c-4.2,0-7.7-3.4-7.7-7.7
			c0-4.2,3.4-7.7,7.7-7.7c4.2,0,7.7,3.4,7.7,7.7C367.7,885.2,364.2,888.6,360,888.6z"/>
	</g>
	<g>
		<path d="M565.1,617.2c-15.8,42.3-48.7,55.3-60.5,58.6c11.7,3.3,44.9,16,60.8,58.4c4.3-10.1,21-43.7,61.4-58.5
			C586.2,661.1,569.4,627.4,565.1,617.2z M577.7,688c-1,24.8-11.3,33.9-11.8,34.2l-0.9,0.7l-0.8-0.9c-10.9-12.8-11.8-29.4-11.8-34.1
			c-18.7,0.3-33.8-10.9-34.4-11.3l-1.2-0.9l1.2-0.9c0.6-0.5,15.8-11.6,34.4-11.4c0-4.7,0.9-21.3,11.8-34.1l0.8-0.9l0.9,0.7
			c0.4,0.4,10.8,9.4,11.8,34.2c4.5,0.1,21.5,1.2,34.6,11.3l1.2,0.9l-1.2,0.9C599.2,686.8,582.2,687.9,577.7,688z"/>
	</g>
</g>
<path id="svg_1_00000170248874913727184090000013381151212345233589_" fill-rule="evenodd" fill="#FFFFFF" d="M332.4,209.4
	l13.4,32.4l13.4-32.4h9.6l-22,53.2l-1,1l-1-1l-22-53.2H332.4z M284.1,209.4c5.2,0,10.1,2.7,12.8,6.6l-5.2,5.2h-1.6
	c-1.1-2.3-3.4-3.7-6-3.7c-3,0-5.9,2.5-6.1,5.7c-0.1,2.4,1,3.9,3,5.2c2.1,1.4,3,2,5.9,3.5c3.2,1.7,11.1,5.1,11.1,14.1
	c0,8.8-7.4,17.1-16.9,17.1c-1.2,0-3.4-0.1-5.1-0.5c-4.7-1.1-7.5-2.9-10.6-6.5l6.6-6.8l2.3,1.9c1,0.8,3.3,2.4,5.5,2.7
	c4.4,0.6,7.3-2.3,7.9-5.2c0.5-2.3-0.1-5.6-3.8-7.4c0,0-6.6-3.7-9.5-5.3c-2.9-1.7-6.1-6.3-6.1-11.9c0-4.1,1.9-8.1,4.9-10.9
	C275.8,211.1,279.1,209.4,284.1,209.4L284.1,209.4z M582.5,208.4l34.4,34.4v-32.3l1-1h6.8l1,1v52.1h-1.6l-33.8-33.8v32.8l-1,1h-6.8
	l-1-1v-52.1L582.5,208.4z M481.1,209.4v7.8l-1,1h-7.8v44.3h-8.9v-44.3h-8.9v-7.8l1-1H481.1z M513.6,209.4v7.8l-1,1h-7.8v44.3h-8.9
	v-44.3H487v-7.8l1-1H513.6z M103.1,209.4v44.3h17.7v8.9H94.2v-52.1l1-1H103.1z M153.3,209.4c14.7,0,26.6,11.9,26.6,26.6
	c0,14.7-11.9,26.6-26.6,26.6c-14.7,0-26.6-11.9-26.6-26.6C126.7,221.3,138.6,209.4,153.3,209.4z M546.1,209.4
	c14.7,0,26.6,11.9,26.6,26.6c0,14.7-11.9,26.6-26.6,26.6c-14.7,0-26.6-11.9-26.6-26.6C519.5,221.3,531.4,209.4,546.1,209.4z
	 M199.5,209.4l1,1v34.4c0,4.9,4,8.9,8.9,8.9c4.9,0,8.9-4,8.9-8.9v-34.4l1-1h6.8l1,1v34.4c0,9.8-7.9,17.7-17.7,17.7
	c-9.8,0-17.7-7.9-17.7-17.7v-34.4l1-1H199.5z M253.7,209.4v52.1l-1,1h-7.8v-52.1l1-1H253.7z M385.5,209.4l1,1v34.4
	c0,4.9,4,8.9,8.9,8.9c4.9,0,8.8-4,8.9-8.9v-34.4l1-1h6.8l1,1v34.4c0,9.8-7.9,17.7-17.7,17.7c-9.8,0-17.7-7.9-17.7-17.7v-34.4l1-1
	C378.8,209.4,385.5,209.4,385.5,209.4z M439.7,209.4v52.1l-1,1h-7.8v-52.1l1-1H439.7z M153.3,218.3c-9.8,0-17.7,7.9-17.7,17.7
	c0,9.8,7.9,17.7,17.7,17.7c9.8,0,17.7-7.9,17.7-17.7S163.1,218.3,153.3,218.3L153.3,218.3z M546.1,218.3c-9.8,0-17.7,7.9-17.7,17.7
	s7.9,17.7,17.7,17.7s17.7-7.9,17.7-17.7S555.8,218.3,546.1,218.3L546.1,218.3z"/>
</svg>
