<?xml version="1.0" encoding="UTF-8"?>
<svg id="_图层_1" data-name="图层_1" xmlns="http://www.w3.org/2000/svg" version="1.1" xmlns:xlink="http://www.w3.org/1999/xlink" viewBox="0 0 720 1280">
  <!-- Generator: Adobe Illustrator 29.0.0, SVG Export Plug-In . SVG Version: 2.1.0 Build 186)  -->
  <defs>
    <style>
      .st0 {
        fill: none;
        stroke: #fcfcfc;
        stroke-miterlimit: 10;
        stroke-width: 3px;
      }

      .st0, .st1 {
        fill-rule: evenodd;
      }

      .st2 {
        mask: url(#mask);
      }

      .st1 {
        fill: #fcfcfc;
      }

      .st3 {
        filter: url(#luminosity-invert-noclip);
      }

      .st4 {
        fill: #020000;
      }
    </style>
    <filter id="luminosity-invert-noclip" x="0" y="0" width="720" height="1280" color-interpolation-filters="sRGB" filterUnits="userSpaceOnUse">
      <feColorMatrix result="cm" values="-1 0 0 0 1 0 -1 0 0 1 0 0 -1 0 1 0 0 0 1 0"/>
      <feFlood flood-color="#fff" result="bg"/>
      <feBlend in="cm" in2="bg"/>
    </filter>
    <mask id="mask" x="0" y="0" width="720" height="1280" maskUnits="userSpaceOnUse">
      <g class="st3">
        <path class="st0" d="M244.9,878.5c-28.9-.8-39.2-12.9-39.2-12.9,16.5-14.1,39.2-13.1,39.2-13.1-.9-21.6,12.6-39.6,12.6-39.6,0,0,13.5,18.1,12.6,39.6,0,0,22.7-1,39.2,13.1,0,0-10.3,12.1-39.2,12.9,0,0,.4,22.9-12.6,39.7-13-16.8-12.6-39.7-12.6-39.7ZM257.5,873c4.1,0,7.4-3.3,7.4-7.4s-3.3-7.4-7.4-7.4-7.4,3.3-7.4,7.4,3.3,7.4,7.4,7.4ZM449.9,673.5c-28.9-.8-39.2-12.9-39.2-12.9,16.5-14.1,39.2-13.1,39.2-13.1-.9-21.6,12.6-39.6,12.6-39.6,0,0,13.5,18.1,12.6,39.6,0,0,22.7-1,39.2,13.1,0,0-10.3,12.1-39.2,12.9,0,0,.4,22.9-12.6,39.7-13-16.8-12.6-39.7-12.6-39.7ZM462.5,668c4.1,0,7.4-3.3,7.4-7.4s-3.3-7.4-7.4-7.4-7.4,3.3-7.4,7.4,3.3,7.4,7.4,7.4ZM475.4,878.2c-.8,28.9-12.9,39.2-12.9,39.2-14.1-16.5-13.1-39.2-13.1-39.2-21.6.9-39.6-12.6-39.6-12.6,0,0,18.1-13.5,39.6-12.6,0,0-1-22.7,13.1-39.2,0,0,12.1,10.3,12.9,39.2,0,0,22.9-.4,39.7,12.6-16.8,12.9-39.7,12.6-39.7,12.6ZM469.9,865.6c0-4.1-3.3-7.4-7.4-7.4s-7.4,3.3-7.4,7.4,3.3,7.4,7.4,7.4,7.4-3.3,7.4-7.4ZM270.4,673.2c-.8,28.9-12.9,39.2-12.9,39.2-14.1-16.5-13.1-39.2-13.1-39.2-21.6.9-39.6-12.6-39.6-12.6,0,0,18.1-13.5,39.6-12.6,0,0-1-22.7,13.1-39.2,0,0,12.1,10.3,12.9,39.2,0,0,22.9-.4,39.7,12.6-16.8,13-39.7,12.6-39.7,12.6ZM264.9,660.6c0-4.1-3.3-7.4-7.4-7.4s-7.4,3.3-7.4,7.4,3.3,7.4,7.4,7.4,7.4-3.3,7.4-7.4ZM360,554.1c-3.5,0-6.4,2.9-6.4,6.4s2.9,6.4,6.4,6.4,6.4-2.9,6.4-6.4-2.9-6.4-6.4-6.4ZM360,496.3h-.3c0,.1-7.1,45.9-60.8,64.3,0,0,44.5,14.6,60.9,64.1v-.2c16.5-49.5,61.1-64.1,61.1-64.1-53.7-18.4-61-64.1-61-64.1ZM370.9,571.8s.3,19.9-10.9,34.5c-11.2-14.6-10.9-34.5-10.9-34.5-25.1-.7-34-11.2-34-11.2,14.3-12.2,34-11.3,34-11.3-.8-18.7,10.9-34.4,10.9-34.4,0,0,11.7,15.7,10.9,34.4,0,0,19.7-.9,34,11.3,0,0-9,10.5-34,11.2ZM562.1,553.6c-4.1,0-7.4,3.3-7.4,7.4s3.3,7.4,7.4,7.4,7.4-3.3,7.4-7.4-3.3-7.4-7.4-7.4ZM562.1,508.2c-29.1,0-52.7,23.7-52.7,52.8s23.7,52.8,52.7,52.8,52.8-23.7,52.8-52.8-23.7-52.8-52.8-52.8ZM579.2,577.1s8,28.3-17.1,28.9h0c-25.1-.6-17.1-29-17.1-29-12.5,4.6-27.4-1.3-27.3-16.1,0-13.4,10.5-20.7,27.2-15.9,0,0-9-29.3,17.2-29.2h0c26.2,0,17.2,29.2,17.2,29.2,16.8-4.8,27.2,2.5,27.2,15.9,0,14.8-14.9,20.7-27.3,16.1ZM414.6,792.5c-3.8,7-10.8,21.4-20.2,23.1-6,1.1-14.2.8-22.3.8-6.4,0-12.8,0-17.9,0-4,0-4.6,0-9.2,0h-3.2c2.8-8.2,4.9-14.4,6.7-19.6l6.7,14.2h13.6c12.2-29.3,27.1-64.3,39.4-93.1,2.9-6.7,6.5-8.3,14.1-8.3v-7.6s-33,0-33,0v7.7c3.3.1,13.1,0,10.2,6.6-4.1,9.3-27.5,66.4-33.2,77.7l-9.6-20.4c3.2-8.6,7.4-19.5,14.9-39.3,3.6-9.5,8.4-9,15.8-9.5l1.8-6.5h-38.4c0,0-2.5,6.6-2.5,6.6,8.9.5,9.7,1.5,5,13.8l-5.8,15.2-10.6-22.5c-1.4-2.9-4-9-5.8-14.8-1.1-3.5,3.3-3.9,4.6-3.7v-10.8h-37.9v10.7c13.5,0,13.1,4.7,17.7,14.3l23.3,49.3-10.6,27.6c-2,5.3-3.8,8.9-6,10.8-2.1,1.8-13.1,1.3-17.7,1.6l-2.8,7.8h105.8c0-.1,14.7-31.7,14.7-31.7h-7.6ZM157.9,507.8c-29.1,0-52.8,23.7-52.8,52.8s23.7,52.8,52.8,52.8,52.8-23.7,52.8-52.8-23.7-52.8-52.8-52.8ZM175,576.6s8,28.3-17.1,28.9h0c-25.1-.6-17.1-29-17.1-29-12.5,4.6-27.4-1.3-27.3-16.1,0-13.4,10.5-20.7,27.2-15.9,0,0-9-29.3,17.2-29.2h0c26.2,0,17.2,29.2,17.2,29.2,16.8-4.8,27.2,2.5,27.2,15.9,0,14.8-14.9,20.7-27.3,16.1ZM157.9,553.1c-4.1,0-7.4,3.3-7.4,7.4s3.3,7.4,7.4,7.4,7.4-3.3,7.4-7.4-3.3-7.4-7.4-7.4ZM360,958.8c-3.5,0-6.4,2.9-6.4,6.4s2.9,6.4,6.4,6.4,6.4-2.9,6.4-6.4-2.9-6.4-6.4-6.4ZM360,901h-.3c0,.1-7.1,45.9-60.8,64.3,0,0,44.5,14.6,60.9,64.1v-.2c16.5-49.5,61.1-64.1,61.1-64.1-53.7-18.4-61-64.1-61-64.1ZM370.9,976.5s.3,19.9-10.9,34.5c-11.2-14.6-10.9-34.5-10.9-34.5-25.1-.7-34-11.2-34-11.2,14.3-12.2,34-11.3,34-11.3-.8-18.7,10.9-34.4,10.9-34.4,0,0,11.7,15.7,10.9,34.4,0,0,19.7-.9,34,11.3,0,0-9,10.5-34,11.2ZM151.3,762.9c0,3.5,2.9,6.4,6.4,6.4s6.4-2.9,6.4-6.4-2.9-6.4-6.4-6.4-6.4,2.9-6.4,6.4ZM93.5,762.9v.3c.1,0,45.9,7.1,64.3,60.7,0,0,14.6-44.5,64.1-60.9h-.2c-49.5-16.5-64.1-61.1-64.1-61.1-18.4,53.7-64.1,61-64.1,61ZM168.9,751.9s19.9-.3,34.5,10.9c-14.6,11.2-34.5,10.9-34.5,10.9-.7,25.1-11.2,34-11.2,34-12.2-14.3-11.3-34-11.3-34-18.7.8-34.4-10.9-34.4-10.9,0,0,15.7-11.7,34.4-10.9,0,0-.9-19.7,11.3-34,0,0,10.5,9,11.2,34ZM555.9,762.9c0,3.5,2.9,6.4,6.4,6.4s6.4-2.9,6.4-6.4-2.9-6.4-6.4-6.4-6.4,2.9-6.4,6.4ZM498.1,762.9v.3c.1,0,45.9,7.1,64.3,60.7,0,0,14.6-44.5,64.1-60.9h-.2c-49.5-16.5-64.1-61.1-64.1-61.1-18.4,53.7-64.1,61-64.1,61ZM573.6,751.9s19.9-.3,34.5,10.9c-14.6,11.2-34.5,10.9-34.5,10.9-.7,25.1-11.2,34-11.2,34-12.2-14.3-11.3-34-11.3-34-18.7.8-34.4-10.9-34.4-10.9,0,0,15.7-11.7,34.4-10.9,0,0-.9-19.7,11.3-34,0,0,10.5,9,11.2,34ZM562.1,958.3c-4.1,0-7.4,3.3-7.4,7.4s3.3,7.4,7.4,7.4,7.4-3.3,7.4-7.4-3.3-7.4-7.4-7.4ZM562.1,912.9c-29.1,0-52.7,23.7-52.7,52.8s23.7,52.8,52.7,52.8,52.8-23.7,52.8-52.8-23.7-52.8-52.8-52.8ZM579.2,981.8s8,28.3-17.1,28.9h0c-25.1-.6-17.1-29-17.1-29-12.5,4.6-27.4-1.3-27.3-16.1,0-13.4,10.5-20.7,27.2-15.9,0,0-9-29.3,17.2-29.2h0c26.2,0,17.2,29.2,17.2,29.2,16.8-4.8,27.2,2.5,27.2,15.9,0,14.8-14.9,20.7-27.3,16.1ZM157.9,912.4c-29.1,0-52.8,23.7-52.8,52.8s23.7,52.8,52.8,52.8,52.8-23.7,52.8-52.8-23.7-52.8-52.8-52.8ZM175,981.3s8,28.3-17.1,28.9h0c-25.1-.6-17.1-29-17.1-29-12.5,4.6-27.4-1.3-27.3-16.1,0-13.4,10.5-20.7,27.2-15.9,0,0-9-29.3,17.2-29.2h0c26.2,0,17.2,29.2,17.2,29.2,16.8-4.8,27.2,2.5,27.2,15.9,0,14.8-14.9,20.7-27.3,16.1ZM157.9,957.8c-4.1,0-7.4,3.3-7.4,7.4s3.3,7.4,7.4,7.4,7.4-3.3,7.4-7.4-3.3-7.4-7.4-7.4Z"/>
      </g>
    </mask>
  </defs>
  <g class="st2">
    <rect class="st4" x="0" width="720" height="1280"/>
  </g>
  <path id="svg_1" class="st1" d="M332,281.7l13.6,32.9,13.6-32.9h9.7l-22.3,53.9-1,1-1-1-22.3-53.9h9.7ZM283.1,281.7c5.2,0,10.2,2.7,12.9,6.7l-5.2,5.2h-1.6c-1.1-2.3-3.5-3.7-6.1-3.7s-6,2.5-6.1,5.8c-.1,2.4,1,3.9,3,5.2,2.2,1.4,3,2,6,3.6,3.2,1.8,11.3,5.2,11.3,14.3s-7.5,17.3-17.1,17.3-3.5-.1-5.2-.5c-4.7-1.1-7.6-2.9-10.7-6.6l6.7-6.9,2.3,1.9c1,.8,3.3,2.5,5.5,2.8,4.4.6,7.4-2.3,8-5.2.5-2.3-.1-5.7-3.8-7.5,0,0-6.7-3.7-9.6-5.4-3-1.7-6.1-6.4-6.1-12s1.9-8.2,5-11.1c2.4-2.2,5.7-3.9,10.8-3.9h0ZM585.6,280.7l34.9,34.9v-32.8l1-1h6.9l1,1v52.8h-1.6l-34.3-34.3v33.2l-1,1h-6.9l-1-1v-52.8l1-1ZM482.7,281.7v7.9l-1,1h-7.9v44.9h-9v-44.9h-9v-7.9l1-1h25.9ZM515.7,281.7v7.9l-1,1h-7.9v44.9h-9v-44.9h-9v-7.9l1-1h25.9ZM99.5,281.7v44.9h18v9h-26.9v-52.8l1-1h7.9ZM150.4,281.7c14.9,0,26.9,12.1,26.9,26.9s-12.1,26.9-26.9,26.9-26.9-12.1-26.9-26.9,12.1-26.9,26.9-26.9ZM548.6,281.7c14.9,0,26.9,12.1,26.9,26.9s-12.1,26.9-26.9,26.9-26.9-12.1-26.9-26.9,12.1-26.9,26.9-26.9ZM197.3,281.7l1,1v34.9c0,5,4,9,9,9s9-4,9-9v-34.9l1-1h6.9l1,1v34.9c0,9.9-8,18-18,18-9.9,0-18-8-18-18v-34.9l1-1h6.9ZM252.2,281.7v52.8l-1,1h-7.9v-52.8l1-1h7.9ZM385.9,281.7l1,1v34.9c0,5,4,9,9,9,5,0,9-4,9-9v-34.9l1-1h6.9l1,1v34.9c0,9.9-8,18-18,18s-18-8-18-18v-34.9l1-1s6.9,0,6.9,0ZM440.8,281.7v52.8l-1,1h-7.9v-52.8l1-1h7.9ZM150.4,290.7c-9.9,0-18,8-18,18,0,9.9,8,18,18,18,9.9,0,18-8,18-18s-8-18-18-18h0ZM548.6,290.7c-9.9,0-18,8-18,18s8,18,18,18,18-8,18-18-8-18-18-18h0Z"/>
</svg>